
<global>
amp_veltrack=0
ampeg_attack=0.001
ampeg_release=1.5
</global>

<group>
ampeg_release=1.0021
group_label=RR1
seq_length=4
seq_position=1

<region>
end=66328
hivel=103
key=D#3
lovel=78
offset=1304
sample=Cymbals_19INCH_Crash_Choke_F_D4_RR1.opus
</region>

<region>
end=46494
hivel=127
key=D#3
lovel=104
offset=926
sample=Cymbals_19INCH_Crash_Choke_FF_D4_RR1.opus
</region>

<region>
end=58077
hivel=77
key=D#3
lovel=52
offset=2781
sample=Cymbals_19INCH_Crash_Choke_MF_D4_RR1.opus
</region>

<region>
end=48409
hivel=51
key=D#3
lovel=26
offset=4889
sample=Cymbals_19INCH_Crash_Choke_MP_D4_RR1.opus
</region>

<region>
end=44070
hivel=25
key=D#3
lovel=0
offset=4134
sample=Cymbals_19INCH_Crash_Choke_P_D4_RR1.opus
</region>

<region>
hivel=103
key=D3
lovel=78
offset=5328
sample=Cymbals_19INCH_Crash_F_D4_RR1.opus
</region>

<region>
hivel=127
key=D3
lovel=104
offset=863
sample=Cymbals_19INCH_Crash_FF_D4_RR1.opus
</region>

<region>
hivel=77
key=D3
lovel=52
offset=5328
sample=Cymbals_19INCH_Crash_MF_D4_RR1.opus
</region>

<region>
hivel=51
key=D3
lovel=26
offset=3820
sample=Cymbals_19INCH_Crash_MP_D4_RR1.opus
</region>

<region>
hivel=25
key=D3
lovel=0
offset=2749
sample=Cymbals_19INCH_Crash_P_D4_RR1.opus
</region>

<region>
end=43422
hivel=103
key=F3
lovel=78
offset=5534
sample=Cymbals_19INCH_HiHat_F_D4_RR1.opus
</region>

<region>
end=40876
hivel=127
key=F3
lovel=104
offset=5036
sample=Cymbals_19INCH_HiHat_FF_D4_RR1.opus
</region>

<region>
end=41601
hivel=77
key=F3
lovel=52
offset=5249
sample=Cymbals_19INCH_HiHat_MF_D4_RR1.opus
</region>

<region>
end=45042
hivel=51
key=F3
lovel=26
offset=4594
sample=Cymbals_19INCH_HiHat_MP_D4_RR1.opus
</region>

<region>
end=59048
hivel=25
key=F3
lovel=0
offset=4776
sample=Cymbals_19INCH_HiHat_P_D4_RR1.opus
</region>

<region>
end=61694
hivel=103
key=G3
lovel=78
offset=5374
sample=Cymbals_19INCH_Punch_F_D4_RR1.opus
</region>

<region>
end=56585
hivel=127
key=G3
lovel=104
offset=5385
sample=Cymbals_19INCH_Punch_FF_D4_RR1.opus
</region>

<region>
end=57143
hivel=77
key=G3
lovel=52
offset=4919
sample=Cymbals_19INCH_Punch_MF_D4_RR1.opus
</region>

<region>
end=52838
hivel=51
key=G3
lovel=26
offset=5222
sample=Cymbals_19INCH_Punch_MP_D4_RR1.opus
</region>

<region>
end=43694
hivel=25
key=G3
lovel=0
offset=4782
sample=Cymbals_19INCH_Punch_P_D4_RR1.opus
</region>

<region>
hivel=103
key=A3
lovel=78
offset=4301
sample=Cymbals_19INCH_Sizzle_F_D4_RR1.opus
</region>

<region>
hivel=127
key=A3
lovel=104
offset=4941
sample=Cymbals_19INCH_Sizzle_FF_D4_RR1.opus
</region>

<region>
hivel=77
key=A3
lovel=52
offset=4277
sample=Cymbals_19INCH_Sizzle_MF_D4_RR1.opus
</region>

<region>
hivel=51
key=A3
lovel=26
offset=5957
sample=Cymbals_19INCH_Sizzle_MP_D4_RR1.opus
</region>

<region>
hivel=25
key=A3
lovel=0
offset=3404
sample=Cymbals_19INCH_Sizzle_P_D4_RR1.opus
</region>

<region>
hivel=103
key=B3
lovel=78
offset=3824
sample=Cymbals_19INCH_Spank_F_D4_RR1.opus
</region>

<region>
hivel=127
key=B3
lovel=104
offset=5014
sample=Cymbals_19INCH_Spank_FF_D4_RR1.opus
</region>

<region>
hivel=77
key=B3
lovel=52
offset=4711
sample=Cymbals_19INCH_Spank_MF_D4_RR1.opus
</region>

<region>
hivel=51
key=B3
lovel=26
offset=5047
sample=Cymbals_19INCH_Spank_MP_D4_RR1.opus
</region>

<region>
hivel=25
key=B3
lovel=0
offset=4724
sample=Cymbals_19INCH_Spank_P_D4_RR1.opus
</region>

<region>
hivel=103
key=D4
lovel=78
offset=4630
sample=Cymbals_19INCH_Suc_F_D4_RR1.opus
</region>

<region>
hivel=127
key=D4
lovel=104
offset=4329
sample=Cymbals_19INCH_Suc_FF_D4_RR1.opus
</region>

<region>
hivel=77
key=D4
lovel=52
offset=4552
sample=Cymbals_19INCH_Suc_MF_D4_RR1.opus
</region>

<region>
hivel=51
key=D4
lovel=26
offset=4405
sample=Cymbals_19INCH_Suc_MP_D4_RR1.opus
</region>

<region>
hivel=25
key=D4
lovel=0
offset=4027
sample=Cymbals_19INCH_Suc_P_D4_RR1.opus
</region>

<region>
hivel=103
key=E4
lovel=78
offset=5934
sample=Cymbals_19INCH_Tap_F_D4_RR1.opus
</region>

<region>
hivel=127
key=E4
lovel=104
offset=6470
sample=Cymbals_19INCH_Tap_FF_D4_RR1.opus
</region>

<region>
hivel=77
key=E4
lovel=52
offset=5484
sample=Cymbals_19INCH_Tap_MF_D4_RR1.opus
</region>

<region>
hivel=51
key=E4
lovel=26
offset=5906
sample=Cymbals_19INCH_Tap_MP_D4_RR1.opus
</region>

<region>
hivel=25
key=E4
lovel=0
offset=5190
sample=Cymbals_19INCH_Tap_P_D4_RR1.opus
</region>

<region>
hivel=103
key=F#4
lovel=78
offset=3625
sample=Cymbals_19INCH_Ting_F_D4_RR1.opus
</region>

<region>
hivel=127
key=F#4
lovel=104
offset=3986
sample=Cymbals_19INCH_Ting_FF_D4_RR1.opus
</region>

<region>
hivel=77
key=F#4
lovel=52
offset=4475
sample=Cymbals_19INCH_Ting_MF_D4_RR1.opus
</region>

<region>
hivel=51
key=F#4
lovel=26
offset=2661
sample=Cymbals_19INCH_Ting_MP_D4_RR1.opus
</region>

<region>
hivel=25
key=F#4
lovel=0
offset=4151
sample=Cymbals_19INCH_Ting_P_D4_RR1.opus
</region>

<region>
hivel=127
key=A#4
lovel=0
offset=18108
sample=Cymbals_19INCH_Whale_Call_D4_RR1.opus
</region>

<region>
hivel=127
key=G#4
lovel=64
offset=5997
sample=Cymbals_19INCH_Zing_MP_D4_RR1.opus
</region>

<region>
hivel=63
key=G#4
lovel=0
offset=3150
sample=Cymbals_19INCH_Zing_P_D4_RR1.opus
</region>
</group>

<group>
ampeg_release=1.0149
group_label=RR2
seq_length=4
seq_position=2

<region>
end=51272
hivel=103
key=D#3
lovel=78
offset=1096
sample=Cymbals_19INCH_Crash_Choke_F_D4_RR2.opus
</region>

<region>
end=47972
hivel=127
key=D#3
lovel=104
offset=868
sample=Cymbals_19INCH_Crash_Choke_FF_D4_RR2.opus
</region>

<region>
end=56075
hivel=77
key=D#3
lovel=52
offset=3339
sample=Cymbals_19INCH_Crash_Choke_MF_D4_RR2.opus
</region>

<region>
end=48956
hivel=51
key=D#3
lovel=26
offset=4412
sample=Cymbals_19INCH_Crash_Choke_MP_D4_RR2.opus
</region>

<region>
end=55905
hivel=25
key=D#3
lovel=0
offset=4705
sample=Cymbals_19INCH_Crash_Choke_P_D4_RR2.opus
</region>

<region>
hivel=103
key=D3
lovel=78
offset=4703
sample=Cymbals_19INCH_Crash_F_D4_RR2.opus
</region>

<region>
hivel=127
key=D3
lovel=104
offset=886
sample=Cymbals_19INCH_Crash_FF_D4_RR2.opus
</region>

<region>
hivel=77
key=D3
lovel=52
offset=6574
sample=Cymbals_19INCH_Crash_MF_D4_RR2.opus
</region>

<region>
hivel=51
key=D3
lovel=26
offset=4496
sample=Cymbals_19INCH_Crash_MP_D4_RR2.opus
</region>

<region>
hivel=25
key=D3
lovel=0
offset=5675
sample=Cymbals_19INCH_Crash_P_D4_RR2.opus
</region>

<region>
end=41314
hivel=103
key=F3
lovel=78
offset=4962
sample=Cymbals_19INCH_HiHat_F_D4_RR2.opus
</region>

<region>
end=51298
hivel=127
key=F3
lovel=104
offset=6754
sample=Cymbals_19INCH_HiHat_FF_D4_RR2.opus
</region>

<region>
end=38712
hivel=77
key=F3
lovel=52
offset=4408
sample=Cymbals_19INCH_HiHat_MF_D4_RR2.opus
</region>

<region>
end=50985
hivel=51
key=F3
lovel=26
offset=4393
sample=Cymbals_19INCH_HiHat_MP_D4_RR2.opus
</region>

<region>
end=48346
hivel=25
key=F3
lovel=0
offset=4314
sample=Cymbals_19INCH_HiHat_P_D4_RR2.opus
</region>

<region>
end=48465
hivel=103
key=G3
lovel=78
offset=4433
sample=Cymbals_19INCH_Punch_F_D4_RR2.opus
</region>

<region>
end=50903
hivel=127
key=G3
lovel=104
offset=4823
sample=Cymbals_19INCH_Punch_FF_D4_RR2.opus
</region>

<region>
end=62253
hivel=77
key=G3
lovel=52
offset=5421
sample=Cymbals_19INCH_Punch_MF_D4_RR2.opus
</region>

<region>
end=56693
hivel=51
key=G3
lovel=26
offset=4469
sample=Cymbals_19INCH_Punch_MP_D4_RR2.opus
</region>

<region>
end=50519
hivel=25
key=G3
lovel=0
offset=3927
sample=Cymbals_19INCH_Punch_P_D4_RR2.opus
</region>

<region>
hivel=103
key=A3
lovel=78
offset=3434
sample=Cymbals_19INCH_Sizzle_F_D4_RR2.opus
</region>

<region>
hivel=127
key=A3
lovel=104
offset=3636
sample=Cymbals_19INCH_Sizzle_FF_D4_RR2.opus
</region>

<region>
end=330343
hivel=77
key=A3
lovel=52
offset=3175
sample=Cymbals_19INCH_Sizzle_MF_D4_RR2.opus
</region>

<region>
hivel=51
key=A3
lovel=26
offset=6269
sample=Cymbals_19INCH_Sizzle_MP_D4_RR2.opus
</region>

<region>
hivel=25
key=A3
lovel=0
offset=2924
sample=Cymbals_19INCH_Sizzle_P_D4_RR2.opus
</region>

<region>
hivel=103
key=B3
lovel=78
offset=4082
sample=Cymbals_19INCH_Spank_F_D4_RR2.opus
</region>

<region>
hivel=127
key=B3
lovel=104
offset=4020
sample=Cymbals_19INCH_Spank_FF_D4_RR2.opus
</region>

<region>
hivel=77
key=B3
lovel=52
offset=4055
sample=Cymbals_19INCH_Spank_MF_D4_RR2.opus
</region>

<region>
hivel=51
key=B3
lovel=26
offset=4096
sample=Cymbals_19INCH_Spank_MP_D4_RR2.opus
</region>

<region>
hivel=25
key=B3
lovel=0
offset=5546
sample=Cymbals_19INCH_Spank_P_D4_RR2.opus
</region>

<region>
hivel=103
key=D4
lovel=78
offset=4318
sample=Cymbals_19INCH_Suc_F_D4_RR2.opus
</region>

<region>
hivel=127
key=D4
lovel=104
offset=3446
sample=Cymbals_19INCH_Suc_FF_D4_RR2.opus
</region>

<region>
hivel=77
key=D4
lovel=52
offset=3524
sample=Cymbals_19INCH_Suc_MF_D4_RR2.opus
</region>

<region>
hivel=51
key=D4
lovel=26
offset=2318
sample=Cymbals_19INCH_Suc_MP_D4_RR2.opus
</region>

<region>
hivel=25
key=D4
lovel=0
offset=4352
sample=Cymbals_19INCH_Suc_P_D4_RR2.opus
</region>

<region>
hivel=103
key=E4
lovel=78
offset=5467
sample=Cymbals_19INCH_Tap_F_D4_RR2.opus
</region>

<region>
hivel=127
key=E4
lovel=104
offset=7535
sample=Cymbals_19INCH_Tap_FF_D4_RR2.opus
</region>

<region>
hivel=77
key=E4
lovel=52
offset=6258
sample=Cymbals_19INCH_Tap_MF_D4_RR2.opus
</region>

<region>
hivel=51
key=E4
lovel=26
offset=6806
sample=Cymbals_19INCH_Tap_MP_D4_RR2.opus
</region>

<region>
hivel=25
key=E4
lovel=0
offset=5429
sample=Cymbals_19INCH_Tap_P_D4_RR2.opus
</region>

<region>
hivel=103
key=F#4
lovel=78
offset=4272
sample=Cymbals_19INCH_Ting_F_D4_RR2.opus
</region>

<region>
hivel=127
key=F#4
lovel=104
offset=3046
sample=Cymbals_19INCH_Ting_FF_D4_RR2.opus
</region>

<region>
hivel=77
key=F#4
lovel=52
offset=5226
sample=Cymbals_19INCH_Ting_MF_D4_RR2.opus
</region>

<region>
hivel=51
key=F#4
lovel=26
offset=3429
sample=Cymbals_19INCH_Ting_MP_D4_RR2.opus
</region>

<region>
hivel=25
key=F#4
lovel=0
offset=3321
sample=Cymbals_19INCH_Ting_P_D4_RR2.opus
</region>

<region>
hivel=127
key=A#4
lovel=0
offset=31320
sample=Cymbals_19INCH_Whale_Call_D4_RR2.opus
</region>

<region>
hivel=127
key=G#4
lovel=64
offset=7985
sample=Cymbals_19INCH_Zing_MP_D4_RR2.opus
</region>

<region>
hivel=63
key=G#4
lovel=0
offset=2341
sample=Cymbals_19INCH_Zing_P_D4_RR2.opus
</region>
</group>

<group>
ampeg_release=1.0238
group_label=RR3
seq_length=4
seq_position=3

<region>
end=53600
hivel=103
key=D#3
lovel=78
offset=864
sample=Cymbals_19INCH_Crash_Choke_F_D4_RR3.opus
</region>

<region>
end=51636
hivel=127
key=D#3
lovel=104
offset=948
sample=Cymbals_19INCH_Crash_Choke_FF_D4_RR3.opus
</region>

<region>
end=53741
hivel=77
key=D#3
lovel=52
offset=4589
sample=Cymbals_19INCH_Crash_Choke_MF_D4_RR3.opus
</region>

<region>
end=59127
hivel=51
key=D#3
lovel=26
offset=5367
sample=Cymbals_19INCH_Crash_Choke_MP_D4_RR3.opus
</region>

<region>
end=65779
hivel=25
key=D#3
lovel=0
offset=4851
sample=Cymbals_19INCH_Crash_Choke_P_D4_RR3.opus
</region>

<region>
hivel=103
key=D3
lovel=78
offset=6419
sample=Cymbals_19INCH_Crash_F_D4_RR3.opus
</region>

<region>
hivel=127
key=D3
lovel=104
offset=774
sample=Cymbals_19INCH_Crash_FF_D4_RR3.opus
</region>

<region>
hivel=77
key=D3
lovel=52
offset=5291
sample=Cymbals_19INCH_Crash_MF_D4_RR3.opus
</region>

<region>
hivel=51
key=D3
lovel=26
offset=5632
sample=Cymbals_19INCH_Crash_MP_D4_RR3.opus
</region>

<region>
hivel=25
key=D3
lovel=0
offset=4910
sample=Cymbals_19INCH_Crash_P_D4_RR3.opus
</region>

<region>
end=45598
hivel=103
key=F3
lovel=78
offset=4638
sample=Cymbals_19INCH_HiHat_F_D4_RR3.opus
</region>

<region>
end=50190
hivel=127
key=F3
lovel=104
offset=6158
sample=Cymbals_19INCH_HiHat_FF_D4_RR3.opus
</region>

<region>
end=44754
hivel=77
key=F3
lovel=52
offset=4818
sample=Cymbals_19INCH_HiHat_MF_D4_RR3.opus
</region>

<region>
end=47736
hivel=51
key=F3
lovel=26
offset=4728
sample=Cymbals_19INCH_HiHat_MP_D4_RR3.opus
</region>

<region>
end=40081
hivel=25
key=F3
lovel=0
offset=4753
sample=Cymbals_19INCH_HiHat_P_D4_RR3.opus
</region>

<region>
end=45158
hivel=103
key=G3
lovel=78
offset=5222
sample=Cymbals_19INCH_Punch_F_D4_RR3.opus
</region>

<region>
end=49150
hivel=127
key=G3
lovel=104
offset=5118
sample=Cymbals_19INCH_Punch_FF_D4_RR3.opus
</region>

<region>
end=59302
hivel=77
key=G3
lovel=52
offset=4006
sample=Cymbals_19INCH_Punch_MF_D4_RR3.opus
</region>

<region>
end=57457
hivel=51
key=G3
lovel=26
offset=3697
sample=Cymbals_19INCH_Punch_MP_D4_RR3.opus
</region>

<region>
end=42132
hivel=25
key=G3
lovel=0
offset=2196
sample=Cymbals_19INCH_Punch_P_D4_RR3.opus
</region>

<region>
hivel=103
key=A3
lovel=78
offset=3536
sample=Cymbals_19INCH_Sizzle_F_D4_RR3.opus
</region>

<region>
hivel=127
key=A3
lovel=104
offset=4178
sample=Cymbals_19INCH_Sizzle_FF_D4_RR3.opus
</region>

<region>
hivel=77
key=A3
lovel=52
offset=3940
sample=Cymbals_19INCH_Sizzle_MF_D4_RR3.opus
</region>

<region>
hivel=51
key=A3
lovel=26
offset=5780
sample=Cymbals_19INCH_Sizzle_MP_D4_RR3.opus
</region>

<region>
hivel=25
key=A3
lovel=0
offset=4410
sample=Cymbals_19INCH_Sizzle_P_D4_RR3.opus
</region>

<region>
hivel=103
key=B3
lovel=78
offset=2571
sample=Cymbals_19INCH_Spank_F_D4_RR3.opus
</region>

<region>
hivel=127
key=B3
lovel=104
offset=5126
sample=Cymbals_19INCH_Spank_FF_D4_RR3.opus
</region>

<region>
hivel=77
key=B3
lovel=52
offset=4465
sample=Cymbals_19INCH_Spank_MF_D4_RR3.opus
</region>

<region>
hivel=51
key=B3
lovel=26
offset=4620
sample=Cymbals_19INCH_Spank_MP_D4_RR3.opus
</region>

<region>
hivel=25
key=B3
lovel=0
offset=4348
sample=Cymbals_19INCH_Spank_P_D4_RR3.opus
</region>

<region>
hivel=103
key=D4
lovel=78
offset=4792
sample=Cymbals_19INCH_Suc_F_D4_RR3.opus
</region>

<region>
hivel=127
key=D4
lovel=104
offset=4024
sample=Cymbals_19INCH_Suc_FF_D4_RR3.opus
</region>

<region>
hivel=77
key=D4
lovel=52
offset=2782
sample=Cymbals_19INCH_Suc_MF_D4_RR3.opus
</region>

<region>
hivel=51
key=D4
lovel=26
offset=2979
sample=Cymbals_19INCH_Suc_MP_D4_RR3.opus
</region>

<region>
hivel=25
key=D4
lovel=0
offset=3509
sample=Cymbals_19INCH_Suc_P_D4_RR3.opus
</region>

<region>
hivel=103
key=E4
lovel=78
offset=7038
sample=Cymbals_19INCH_Tap_F_D4_RR3.opus
</region>

<region>
hivel=127
key=E4
lovel=104
offset=6191
sample=Cymbals_19INCH_Tap_FF_D4_RR3.opus
</region>

<region>
hivel=77
key=E4
lovel=52
offset=4949
sample=Cymbals_19INCH_Tap_MF_D4_RR3.opus
</region>

<region>
hivel=51
key=E4
lovel=26
offset=6936
sample=Cymbals_19INCH_Tap_MP_D4_RR3.opus
</region>

<region>
hivel=25
key=E4
lovel=0
offset=6030
sample=Cymbals_19INCH_Tap_P_D4_RR3.opus
</region>

<region>
hivel=103
key=F#4
lovel=78
offset=4149
sample=Cymbals_19INCH_Ting_F_D4_RR3.opus
</region>

<region>
hivel=127
key=F#4
lovel=104
offset=2043
sample=Cymbals_19INCH_Ting_FF_D4_RR3.opus
</region>

<region>
hivel=77
key=F#4
lovel=52
offset=4704
sample=Cymbals_19INCH_Ting_MF_D4_RR3.opus
</region>

<region>
hivel=51
key=F#4
lovel=26
offset=3281
sample=Cymbals_19INCH_Ting_MP_D4_RR3.opus
</region>

<region>
hivel=25
key=F#4
lovel=0
offset=6564
sample=Cymbals_19INCH_Ting_P_D4_RR3.opus
</region>

<region>
end=324228
hivel=127
key=A#4
lovel=0
offset=179534
sample=Cymbals_19INCH_Whale_Call_D4_RR3.opus
</region>

<region>
hivel=127
key=G#4
lovel=64
offset=24759
sample=Cymbals_19INCH_Zing_MP_D4_RR3.opus
</region>

<region>
hivel=63
key=G#4
lovel=0
offset=8025
sample=Cymbals_19INCH_Zing_P_D4_RR3.opus
</region>
</group>

<group>
ampeg_release=1.0448
group_label=RR4
seq_length=4
seq_position=4

<region>
end=45976
hivel=103
key=D#3
lovel=78
offset=920
sample=Cymbals_19INCH_Crash_Choke_F_D4_RR4.opus
</region>

<region>
end=57747
hivel=127
key=D#3
lovel=104
offset=915
sample=Cymbals_19INCH_Crash_Choke_FF_D4_RR4.opus
</region>

<region>
end=54718
hivel=77
key=D#3
lovel=52
offset=958
sample=Cymbals_19INCH_Crash_Choke_MF_D4_RR4.opus
</region>

<region>
end=55327
hivel=51
key=D#3
lovel=26
offset=5151
sample=Cymbals_19INCH_Crash_Choke_MP_D4_RR4.opus
</region>

<region>
end=58154
hivel=25
key=D#3
lovel=0
offset=3882
sample=Cymbals_19INCH_Crash_Choke_P_D4_RR4.opus
</region>

<region>
hivel=103
key=D3
lovel=78
offset=4779
sample=Cymbals_19INCH_Crash_F_D4_RR4.opus
</region>

<region>
hivel=127
key=D3
lovel=104
offset=885
sample=Cymbals_19INCH_Crash_FF_D4_RR4.opus
</region>

<region>
hivel=77
key=D3
lovel=52
offset=6812
sample=Cymbals_19INCH_Crash_MF_D4_RR4.opus
</region>

<region>
hivel=51
key=D3
lovel=26
offset=5294
sample=Cymbals_19INCH_Crash_MP_D4_RR4.opus
</region>

<region>
hivel=25
key=D3
lovel=0
offset=5386
sample=Cymbals_19INCH_Crash_P_D4_RR4.opus
</region>

<region>
end=47306
hivel=103
key=F3
lovel=78
offset=6858
sample=Cymbals_19INCH_HiHat_F_D4_RR4.opus
</region>

<region>
end=41095
hivel=127
key=F3
lovel=104
offset=7303
sample=Cymbals_19INCH_HiHat_FF_D4_RR4.opus
</region>

<region>
end=53540
hivel=77
key=F3
lovel=52
offset=5412
sample=Cymbals_19INCH_HiHat_MF_D4_RR4.opus
</region>

<region>
end=53079
hivel=51
key=F3
lovel=26
offset=2903
sample=Cymbals_19INCH_HiHat_MP_D4_RR4.opus
</region>

<region>
end=39498
hivel=25
key=F3
lovel=0
offset=4682
sample=Cymbals_19INCH_HiHat_P_D4_RR4.opus
</region>

<region>
end=48034
hivel=103
key=G3
lovel=78
offset=4514
sample=Cymbals_19INCH_Punch_F_D4_RR4.opus
</region>

<region>
end=56634
hivel=127
key=G3
lovel=104
offset=5434
sample=Cymbals_19INCH_Punch_FF_D4_RR4.opus
</region>

<region>
end=50384
hivel=77
key=G3
lovel=52
offset=4816
sample=Cymbals_19INCH_Punch_MF_D4_RR4.opus
</region>

<region>
end=53963
hivel=51
key=G3
lovel=26
offset=3787
sample=Cymbals_19INCH_Punch_MP_D4_RR4.opus
</region>

<region>
end=46256
hivel=25
key=G3
lovel=0
offset=3760
sample=Cymbals_19INCH_Punch_P_D4_RR4.opus
</region>

<region>
hivel=103
key=A3
lovel=78
offset=3859
sample=Cymbals_19INCH_Sizzle_F_D4_RR4.opus
</region>

<region>
end=321276
hivel=127
key=A3
lovel=104
offset=5175
sample=Cymbals_19INCH_Sizzle_FF_D4_RR4.opus
</region>

<region>
end=327048
hivel=77
key=A3
lovel=52
offset=3352
sample=Cymbals_19INCH_Sizzle_MF_D4_RR4.opus
</region>

<region>
hivel=51
key=A3
lovel=26
offset=4107
sample=Cymbals_19INCH_Sizzle_MP_D4_RR4.opus
</region>

<region>
hivel=25
key=A3
lovel=0
offset=4942
sample=Cymbals_19INCH_Sizzle_P_D4_RR4.opus
</region>

<region>
hivel=103
key=B3
lovel=78
offset=1227
sample=Cymbals_19INCH_Spank_F_D4_RR4.opus
</region>

<region>
hivel=127
key=B3
lovel=104
offset=5429
sample=Cymbals_19INCH_Spank_FF_D4_RR4.opus
</region>

<region>
hivel=77
key=B3
lovel=52
offset=4799
sample=Cymbals_19INCH_Spank_MF_D4_RR4.opus
</region>

<region>
hivel=51
key=B3
lovel=26
offset=3984
sample=Cymbals_19INCH_Spank_MP_D4_RR4.opus
</region>

<region>
hivel=25
key=B3
lovel=0
offset=5835
sample=Cymbals_19INCH_Spank_P_D4_RR4.opus
</region>

<region>
hivel=103
key=D4
lovel=78
offset=10815
sample=Cymbals_19INCH_Suc_F_D4_RR4.opus
</region>

<region>
hivel=127
key=D4
lovel=104
offset=3969
sample=Cymbals_19INCH_Suc_FF_D4_RR4.opus
</region>

<region>
hivel=77
key=D4
lovel=52
offset=3542
sample=Cymbals_19INCH_Suc_MF_D4_RR4.opus
</region>

<region>
hivel=51
key=D4
lovel=26
offset=3025
sample=Cymbals_19INCH_Suc_MP_D4_RR4.opus
</region>

<region>
hivel=25
key=D4
lovel=0
offset=2353
sample=Cymbals_19INCH_Suc_P_D4_RR4.opus
</region>

<region>
hivel=103
key=E4
lovel=78
offset=7068
sample=Cymbals_19INCH_Tap_F_D4_RR4.opus
</region>

<region>
hivel=127
key=E4
lovel=104
offset=6936
sample=Cymbals_19INCH_Tap_FF_D4_RR4.opus
</region>

<region>
hivel=77
key=E4
lovel=52
offset=5763
sample=Cymbals_19INCH_Tap_MF_D4_RR4.opus
</region>

<region>
hivel=51
key=E4
lovel=26
offset=4819
sample=Cymbals_19INCH_Tap_MP_D4_RR4.opus
</region>

<region>
hivel=25
key=E4
lovel=0
offset=6911
sample=Cymbals_19INCH_Tap_P_D4_RR4.opus
</region>

<region>
hivel=103
key=F#4
lovel=78
offset=5047
sample=Cymbals_19INCH_Ting_F_D4_RR4.opus
</region>

<region>
hivel=127
key=F#4
lovel=104
offset=2624
sample=Cymbals_19INCH_Ting_FF_D4_RR4.opus
</region>

<region>
hivel=77
key=F#4
lovel=52
offset=4514
sample=Cymbals_19INCH_Ting_MF_D4_RR4.opus
</region>

<region>
hivel=51
key=F#4
lovel=26
offset=4900
sample=Cymbals_19INCH_Ting_MP_D4_RR4.opus
</region>

<region>
hivel=25
key=F#4
lovel=0
offset=3897
sample=Cymbals_19INCH_Ting_P_D4_RR4.opus
</region>

<region>
end=352305
hivel=127
key=A#4
lovel=0
offset=237123
sample=Cymbals_19INCH_Whale_Call_D4_RR4.opus
</region>

<region>
hivel=127
key=G#4
lovel=64
offset=29410
sample=Cymbals_19INCH_Zing_MP_D4_RR4.opus
</region>

<region>
hivel=63
key=G#4
lovel=0
offset=7170
sample=Cymbals_19INCH_Zing_P_D4_RR4.opus
</region>
</group>

<group>
ampeg_attack=0.001
ampeg_release=0.9513
group_label=Rolls_RR1_0-42
seq_length=2
seq_position=1
xf_cccurve=gain
xfin_hicc1=42
xfout_hicc1=84
xfout_locc1=42

<region>
hivel=127
key=D2
loop_end=184953
loop_mode=loop_continuous
loop_start=41796
loop_xfade=36554
lovel=0
sample=Cymbals_19INCH_Roll_Closed_P_D4_RR1.opus
</region>

<region>
hivel=127
key=D#2
loop_end=184953
loop_mode=loop_continuous
loop_start=41796
loop_xfade=36554
lovel=0
sample=Cymbals_19INCH_Roll_Open_P_D4_RR1.opus
</region>
</group>

<group>
ampeg_attack=0.001
ampeg_release=1.0068
group_label=Rolls_RR1_43-85
seq_length=2
seq_position=1
xfin_hicc1=85
xfin_locc1=43
xfout_hicc1=127
xfout_locc1=85

<region>
hivel=127
key=D2
loop_end=184953
loop_mode=loop_continuous
loop_start=41796
loop_xfade=36554
lovel=0
sample=Cymbals_19INCH_Roll_Closed_MF_D4_RR1.opus
</region>

<region>
hivel=127
key=D#2
loop_end=184953
loop_mode=loop_continuous
loop_start=41796
loop_xfade=36554
lovel=0
sample=Cymbals_19INCH_Roll_Open_MF_D4_RR1.opus
</region>
</group>

<group>
ampeg_attack=0.001
ampeg_release=1.0215
group_label=Rolls_RR1_86-127
seq_length=2
seq_position=1
xfin_hicc1=127
xfin_locc1=86
xfout_hicc1=127
xfout_locc1=127

<region>
hivel=127
key=D2
loop_end=184953
loop_mode=loop_continuous
loop_start=41796
loop_xfade=36554
lovel=0
sample=Cymbals_19INCH_Roll_Closed_FF_D4_RR1.opus
</region>

<region>
hivel=127
key=D#2
loop_end=184953
loop_mode=loop_continuous
loop_start=41796
loop_xfade=36554
lovel=0
sample=Cymbals_19INCH_Roll_Open_FF_D4_RR1.opus
</region>
</group>

<group>
ampeg_attack=0.001
ampeg_release=0.9754
group_label=Rolls_RR2_0-42
seq_length=2
seq_position=2
xf_cccurve=gain
xfin_hicc1=42
xfout_hicc1=84
xfout_locc1=42

<region>
hivel=127
key=D2
loop_end=184953
loop_mode=loop_continuous
loop_start=41796
loop_xfade=36554
lovel=0
sample=Cymbals_19INCH_Roll_Closed_P_D4_RR2.opus
</region>

<region>
hivel=127
key=D#2
loop_end=184953
loop_mode=loop_continuous
loop_start=41796
loop_xfade=36554
lovel=0
sample=Cymbals_19INCH_Roll_Open_P_D4_RR2.opus
</region>
</group>

<group>
ampeg_attack=0.001
ampeg_release=0.9913
group_label=Rolls_RR2_43-85
seq_length=2
seq_position=2
xfin_hicc1=85
xfin_locc1=43
xfout_hicc1=127
xfout_locc1=85

<region>
hivel=127
key=D2
loop_end=184953
loop_mode=loop_continuous
loop_start=41796
loop_xfade=36554
lovel=0
sample=Cymbals_19INCH_Roll_Closed_MF_D4_RR2.opus
</region>

<region>
hivel=127
key=D#2
loop_end=184953
loop_mode=loop_continuous
loop_start=41796
loop_xfade=36554
lovel=0
sample=Cymbals_19INCH_Roll_Open_MF_D4_RR2.opus
</region>
</group>

<group>
ampeg_attack=0.001
ampeg_release=0.9707
group_label=Rolls_RR2_86-127
seq_length=2
seq_position=2
xfin_hicc1=127
xfin_locc1=86
xfout_hicc1=127
xfout_locc1=127

<region>
hivel=127
key=D2
loop_end=184953
loop_mode=loop_continuous
loop_start=41796
loop_xfade=36554
lovel=0
sample=Cymbals_19INCH_Roll_Closed_FF_D4_RR2.opus
</region>

<region>
hivel=127
key=D#2
loop_end=184953
loop_mode=loop_continuous
loop_start=41796
loop_xfade=36554
lovel=0
sample=Cymbals_19INCH_Roll_Open_FF_D4_RR2.opus
</region>
</group>

<group>
ampeg_attack=0.01
ampeg_release=1.0301
group_label=RollsRel_RR1_0-42
offset=180000
seq_length=2
seq_position=1
trigger=release
xf_cccurve=gain
xfin_hicc1=42
xfout_hicc1=84
xfout_locc1=42

<region>
hivel=127
key=D2
loop_mode=loop_continuous
lovel=0
sample=Cymbals_19INCH_Roll_Closed_P_D4_RR1.opus
</region>

<region>
hivel=127
key=D#2
loop_mode=loop_continuous
lovel=0
sample=Cymbals_19INCH_Roll_Open_P_D4_RR1.opus
</region>
</group>

<group>
ampeg_attack=0.01
ampeg_release=1.0312
group_label=RollsRel_RR1_43-85
offset=180000
seq_length=2
seq_position=1
trigger=release
xfin_hicc1=85
xfin_locc1=43
xfout_hicc1=127
xfout_locc1=85

<region>
hivel=127
key=D2
loop_mode=loop_continuous
lovel=0
sample=Cymbals_19INCH_Roll_Closed_MF_D4_RR1.opus
</region>

<region>
hivel=127
key=D#2
loop_mode=loop_continuous
lovel=0
sample=Cymbals_19INCH_Roll_Open_MF_D4_RR1.opus
</region>
</group>

<group>
ampeg_attack=0.01
ampeg_release=1.0537
group_label=RollsRel_RR1_86-127
offset=180000
seq_length=2
seq_position=1
trigger=release
xfin_hicc1=127
xfin_locc1=86
xfout_hicc1=127
xfout_locc1=127

<region>
hivel=127
key=D2
lovel=0
sample=Cymbals_19INCH_Roll_Closed_FF_D4_RR1.opus
</region>

<region>
hivel=127
key=D#2
loop_mode=loop_continuous
lovel=0
sample=Cymbals_19INCH_Roll_Open_FF_D4_RR1.opus
</region>
</group>

<group>
ampeg_attack=0.01
ampeg_release=0.9339
group_label=RollsRel_RR2_0-42
offset=180000
seq_length=2
seq_position=2
trigger=release
xf_cccurve=gain
xfin_hicc1=42
xfout_hicc1=84
xfout_locc1=42

<region>
hivel=127
key=D2
loop_mode=loop_continuous
lovel=0
sample=Cymbals_19INCH_Roll_Closed_P_D4_RR2.opus
</region>

<region>
hivel=127
key=D#2
loop_mode=loop_continuous
lovel=0
sample=Cymbals_19INCH_Roll_Open_P_D4_RR2.opus
</region>
</group>

<group>
ampeg_attack=0.01
ampeg_release=0.9587
group_label=RollsRel_RR2_43-85
offset=180000
seq_length=2
seq_position=2
trigger=release
xfin_hicc1=85
xfin_locc1=43
xfout_hicc1=127
xfout_locc1=85

<region>
hivel=127
key=D2
loop_mode=loop_continuous
lovel=0
sample=Cymbals_19INCH_Roll_Closed_MF_D4_RR2.opus
</region>

<region>
hivel=127
key=D#2
loop_mode=loop_continuous
lovel=0
sample=Cymbals_19INCH_Roll_Open_MF_D4_RR2.opus
</region>
</group>

<group>
ampeg_attack=0.01
ampeg_release=1.0324
group_label=RollsRel_RR2_86-127
offset=180000
seq_length=2
seq_position=2
trigger=release
xfin_hicc1=127
xfin_locc1=86
xfout_hicc1=127
xfout_locc1=127

<region>
hivel=127
key=D2
loop_mode=loop_continuous
lovel=0
sample=Cymbals_19INCH_Roll_Closed_FF_D4_RR2.opus
</region>

<region>
hivel=127
key=D#2
loop_mode=loop_continuous
lovel=0
sample=Cymbals_19INCH_Roll_Open_FF_D4_RR2.opus
</region>
</group>